<svg width="42" height="42" viewBox="0 0 42 42" fill="none" xmlns="http://www.w3.org/2000/svg">
<g clip-path="url(#clip0)">
<path fill-rule="evenodd" clip-rule="evenodd" d="M5.25 13.125V32.8125C5.25 35.0805 6.93525 36.75 8.81213 36.75H33.1879C35.0648 36.75 36.75 35.0805 36.75 32.8125V13.125H39.375V32.8125C39.375 36.3431 36.6949 39.375 33.1879 39.375H8.81213C5.30513 39.375 2.625 36.3431 2.625 32.8125V13.125H5.25Z" fill="white"/>
<path fill-rule="evenodd" clip-rule="evenodd" d="M14.4375 19.6875C14.4375 19.3394 14.5758 19.0056 14.8219 18.7594C15.0681 18.5133 15.4019 18.375 15.75 18.375H26.25C26.5981 18.375 26.9319 18.5133 27.1781 18.7594C27.4242 19.0056 27.5625 19.3394 27.5625 19.6875C27.5625 20.0356 27.4242 20.3694 27.1781 20.6156C26.9319 20.8617 26.5981 21 26.25 21H15.75C15.4019 21 15.0681 20.8617 14.8219 20.6156C14.5758 20.3694 14.4375 20.0356 14.4375 19.6875ZM39.375 5.25H2.625V10.5H39.375V5.25ZM2.625 2.625C1.92881 2.625 1.26113 2.90156 0.768845 3.39384C0.276562 3.88613 0 4.55381 0 5.25L0 10.5C0 11.1962 0.276562 11.8639 0.768845 12.3562C1.26113 12.8484 1.92881 13.125 2.625 13.125H39.375C40.0712 13.125 40.7389 12.8484 41.2312 12.3562C41.7234 11.8639 42 11.1962 42 10.5V5.25C42 4.55381 41.7234 3.88613 41.2312 3.39384C40.7389 2.90156 40.0712 2.625 39.375 2.625H2.625Z" fill="white"/>
</g>
<defs>
<clipPath id="clip0">
<rect width="42" height="42" fill="white"/>
</clipPath>
</defs>
</svg>
