<svg width="24" height="24" viewBox="0 0 24 24" fill="none" xmlns="http://www.w3.org/2000/svg">
<path fill-rule="evenodd" clip-rule="evenodd" d="M9.75 12C9.75 11.8011 9.67098 11.6103 9.53033 11.4697C9.38968 11.329 9.19891 11.25 9 11.25H2.25C2.05109 11.25 1.86032 11.329 1.71967 11.4697C1.57902 11.6103 1.5 11.8011 1.5 12C1.5 12.1989 1.57902 12.3897 1.71967 12.5303C1.86032 12.671 2.05109 12.75 2.25 12.75H9C9.19891 12.75 9.38968 12.671 9.53033 12.5303C9.67098 12.3897 9.75 12.1989 9.75 12Z" fill="black"/>
<path fill-rule="evenodd" clip-rule="evenodd" d="M5.781 8.46912C5.71133 8.39927 5.62857 8.34386 5.53745 8.30605C5.44633 8.26824 5.34865 8.24878 5.25 8.24878C5.15135 8.24878 5.05367 8.26824 4.96255 8.30605C4.87143 8.34386 4.78867 8.39927 4.719 8.46912L1.719 11.4691C1.64915 11.5388 1.59374 11.6216 1.55593 11.7127C1.51812 11.8038 1.49866 11.9015 1.49866 12.0001C1.49866 12.0988 1.51812 12.1965 1.55593 12.2876C1.59374 12.3787 1.64915 12.4615 1.719 12.5311L4.719 15.5311C4.78873 15.6009 4.87151 15.6562 4.96262 15.6939C5.05373 15.7316 5.15138 15.7511 5.25 15.7511C5.34861 15.7511 5.44626 15.7316 5.53737 15.6939C5.62848 15.6562 5.71127 15.6009 5.781 15.5311C5.85073 15.4614 5.90604 15.3786 5.94378 15.2875C5.98152 15.1964 6.00095 15.0987 6.00095 15.0001C6.00095 14.9015 5.98152 14.8039 5.94378 14.7127C5.90604 14.6216 5.85073 14.5389 5.781 14.4691L3.3105 12.0001L5.781 9.53112C5.85084 9.46145 5.90626 9.37869 5.94407 9.28757C5.98188 9.19645 6.00134 9.09877 6.00134 9.00012C6.00134 8.90147 5.98188 8.80379 5.94407 8.71267C5.90626 8.62155 5.85084 8.53879 5.781 8.46912ZM14.25 12.0001C14.25 11.8012 14.329 11.6104 14.4697 11.4698C14.6103 11.3291 14.8011 11.2501 15 11.2501H21.75C21.9489 11.2501 22.1397 11.3291 22.2803 11.4698C22.421 11.6104 22.5 11.8012 22.5 12.0001C22.5 12.199 22.421 12.3898 22.2803 12.5304C22.1397 12.6711 21.9489 12.7501 21.75 12.7501H15C14.8011 12.7501 14.6103 12.6711 14.4697 12.5304C14.329 12.3898 14.25 12.199 14.25 12.0001Z" fill="black"/>
<path fill-rule="evenodd" clip-rule="evenodd" d="M18.219 8.46912C18.2887 8.39927 18.3714 8.34386 18.4626 8.30605C18.5537 8.26824 18.6513 8.24878 18.75 8.24878C18.8487 8.24878 18.9463 8.26824 19.0375 8.30605C19.1286 8.34386 19.2113 8.39927 19.281 8.46912L22.281 11.4691C22.3508 11.5388 22.4063 11.6216 22.4441 11.7127C22.4819 11.8038 22.5013 11.9015 22.5013 12.0001C22.5013 12.0988 22.4819 12.1965 22.4441 12.2876C22.4063 12.3787 22.3508 12.4615 22.281 12.5311L19.281 15.5311C19.2113 15.6009 19.1285 15.6562 19.0374 15.6939C18.9463 15.7316 18.8486 15.7511 18.75 15.7511C18.6514 15.7511 18.5537 15.7316 18.4626 15.6939C18.3715 15.6562 18.2887 15.6009 18.219 15.5311C18.1493 15.4614 18.094 15.3786 18.0562 15.2875C18.0185 15.1964 17.9991 15.0987 17.9991 15.0001C17.9991 14.9015 18.0185 14.8039 18.0562 14.7127C18.094 14.6216 18.1493 14.5389 18.219 14.4691L20.6895 12.0001L18.219 9.53112C18.1492 9.46145 18.0937 9.37869 18.0559 9.28757C18.0181 9.19645 17.9987 9.09877 17.9987 9.00012C17.9987 8.90147 18.0181 8.80379 18.0559 8.71267C18.0937 8.62155 18.1492 8.53879 18.219 8.46912ZM12 14.2501C11.8011 14.2501 11.6103 14.3291 11.4697 14.4698C11.329 14.6104 11.25 14.8012 11.25 15.0001V21.7501C11.25 21.949 11.329 22.1398 11.4697 22.2805C11.6103 22.4211 11.8011 22.5001 12 22.5001C12.1989 22.5001 12.3897 22.4211 12.5303 22.2805C12.671 22.1398 12.75 21.949 12.75 21.7501V15.0001C12.75 14.8012 12.671 14.6104 12.5303 14.4698C12.3897 14.3291 12.1989 14.2501 12 14.2501Z" fill="black"/>
<path fill-rule="evenodd" clip-rule="evenodd" d="M8.469 18.219C8.39915 18.2887 8.34374 18.3714 8.30593 18.4626C8.26812 18.5537 8.24866 18.6513 8.24866 18.75C8.24866 18.8487 8.26812 18.9463 8.30593 19.0374C8.34374 19.1286 8.39915 19.2113 8.469 19.281L11.469 22.281C11.5387 22.3508 11.6214 22.4063 11.7125 22.4441C11.8037 22.4819 11.9013 22.5013 12 22.5013C12.0986 22.5013 12.1963 22.4819 12.2874 22.4441C12.3786 22.4063 12.4613 22.3508 12.531 22.281L15.531 19.281C15.6007 19.2113 15.656 19.1285 15.6938 19.0374C15.7315 18.9463 15.7509 18.8486 15.7509 18.75C15.7509 18.6514 15.7315 18.5537 15.6938 18.4626C15.656 18.3715 15.6007 18.2887 15.531 18.219C15.4613 18.1493 15.3785 18.094 15.2874 18.0562C15.1963 18.0185 15.0986 17.9991 15 17.9991C14.9014 17.9991 14.8037 18.0185 14.7126 18.0562C14.6215 18.094 14.5387 18.1493 14.469 18.219L12 20.6895L9.531 18.219C9.46133 18.1492 9.37857 18.0937 9.28745 18.0559C9.19633 18.0181 9.09865 17.9987 9 17.9987C8.90135 17.9987 8.80366 18.0181 8.71255 18.0559C8.62143 18.0937 8.53867 18.1492 8.469 18.219ZM12 9.75C11.8011 9.75 11.6103 9.67098 11.4697 9.53033C11.329 9.38968 11.25 9.19891 11.25 9V2.25C11.25 2.05109 11.329 1.86032 11.4697 1.71967C11.6103 1.57902 11.8011 1.5 12 1.5C12.1989 1.5 12.3897 1.57902 12.5303 1.71967C12.671 1.86032 12.75 2.05109 12.75 2.25V9C12.75 9.19891 12.671 9.38968 12.5303 9.53033C12.3897 9.67098 12.1989 9.75 12 9.75Z" fill="black"/>
<path fill-rule="evenodd" clip-rule="evenodd" d="M8.469 5.78112C8.39915 5.71145 8.34374 5.62869 8.30593 5.53757C8.26812 5.44645 8.24866 5.34877 8.24866 5.25012C8.24866 5.15147 8.26812 5.05379 8.30593 4.96267C8.34374 4.87155 8.39915 4.78879 8.469 4.71912L11.469 1.71912C11.5387 1.64928 11.6214 1.59386 11.7125 1.55605C11.8037 1.51824 11.9013 1.49878 12 1.49878C12.0986 1.49878 12.1963 1.51824 12.2874 1.55605C12.3786 1.59386 12.4613 1.64928 12.531 1.71912L15.531 4.71912C15.6007 4.78885 15.656 4.87164 15.6938 4.96274C15.7315 5.05385 15.7509 5.1515 15.7509 5.25012C15.7509 5.34874 15.7315 5.44639 15.6938 5.53749C15.656 5.6286 15.6007 5.71139 15.531 5.78112C15.4613 5.85085 15.3785 5.90617 15.2874 5.9439C15.1963 5.98164 15.0986 6.00107 15 6.00107C14.9014 6.00107 14.8037 5.98164 14.7126 5.9439C14.6215 5.90617 14.5387 5.85085 14.469 5.78112L12 3.31062L9.531 5.78112C9.46133 5.85096 9.37857 5.90638 9.28745 5.94419C9.19633 5.982 9.09865 6.00146 9 6.00146C8.90135 6.00146 8.80366 5.982 8.71255 5.94419C8.62143 5.90638 8.53867 5.85096 8.469 5.78112Z" fill="black"/>
</svg>
