<svg width="42" height="42" viewBox="0 0 42 42" fill="none" xmlns="http://www.w3.org/2000/svg">
<path d="M12.8284 16.2748L10.2979 15.8416C9.4032 15.6904 8.48686 15.7263 7.60674 15.9471C6.72663 16.1679 5.90188 16.5688 5.18458 17.1245C4.46727 17.6803 3.87301 18.3787 3.43932 19.1757C3.00564 19.9728 2.74195 20.8511 2.66492 21.7552C2.5879 22.6593 2.6992 23.5696 2.99181 24.4285C3.28441 25.2874 3.75196 26.0763 4.36492 26.7454C4.97787 27.4144 5.72292 27.9491 6.55299 28.3156C7.38306 28.6821 8.28012 28.8725 9.18751 28.8748H15.75V31.4998H9.18751C7.9156 31.4996 6.65758 31.2353 5.49311 30.7237C4.32864 30.212 3.28309 29.4642 2.42266 28.5275C1.56223 27.5908 0.905666 26.4856 0.49454 25.282C0.083414 24.0784 -0.0733168 22.8025 0.0342714 21.5351C0.14186 20.2678 0.511423 19.0366 1.11956 17.9194C1.7277 16.8023 2.56116 15.8237 3.56718 15.0454C4.5732 14.2672 5.72985 13.7063 6.9639 13.3982C8.19795 13.0902 9.48252 13.0418 10.7363 13.256C11.0472 11.5372 11.698 9.89773 12.6505 8.43357C13.603 6.96942 14.8381 5.71003 16.2834 4.72916C17.7287 3.74828 19.3551 3.06563 21.0676 2.7212C22.78 2.37676 24.5439 2.37745 26.256 2.72323C27.9682 3.06901 29.5941 3.75293 31.0386 4.73494C32.4832 5.71695 33.7172 6.97731 34.6686 8.4422C35.6199 9.9071 36.2694 11.5471 36.5791 13.2661C36.8887 14.9852 36.8522 16.7487 36.4718 18.4535C38.0999 18.7165 39.5694 19.5826 40.588 20.8796C41.6067 22.1765 42.0999 23.8094 41.9696 25.4535C41.8392 27.0975 41.0949 28.6323 39.8846 29.7526C38.6743 30.8729 37.0867 31.4966 35.4375 31.4998H26.25V28.8748H35.4375C36.4273 28.8741 37.3806 28.5007 38.1075 27.8288C38.8344 27.157 39.2816 26.236 39.36 25.2493C39.4385 24.2626 39.1424 23.2826 38.5308 22.5043C37.9192 21.726 37.0369 21.2067 36.0596 21.0496L33.3375 20.6165L33.9045 17.918C34.178 16.5662 34.1826 15.1737 33.918 13.8201C33.6534 12.4665 33.1248 11.1783 32.3623 10.029C31.5999 8.87972 30.6185 7.89186 29.4743 7.12182C28.33 6.35179 27.0453 5.81467 25.6935 5.54114C24.3417 5.2676 22.9492 5.26301 21.5956 5.52761C20.242 5.79222 18.9538 6.32084 17.8045 7.0833C16.6552 7.84577 15.6673 8.82713 14.8973 9.97137C14.1273 11.1156 13.5902 12.4003 13.3166 13.7521L12.831 16.2721L12.8284 16.2748Z" fill="white"/>
<path fill-rule="evenodd" clip-rule="evenodd" d="M13.125 23.2421C13.3711 23.4881 13.7049 23.6264 14.0529 23.6264C14.4009 23.6264 14.7347 23.4881 14.9809 23.2421L21 17.2203L27.0191 23.2395C27.1402 23.3648 27.285 23.4648 27.4451 23.5336C27.6053 23.6024 27.7775 23.6386 27.9518 23.6401C28.126 23.6416 28.2989 23.6084 28.4602 23.5424C28.6215 23.4764 28.768 23.379 28.8912 23.2557C29.0145 23.1325 29.1119 22.986 29.1779 22.8247C29.2439 22.6634 29.2771 22.4905 29.2756 22.3163C29.2741 22.142 29.2379 21.9698 29.1691 21.8096C29.1003 21.6495 29.0003 21.5047 28.875 21.3836L21.9292 14.4378C21.8073 14.3156 21.6625 14.2186 21.503 14.1525C21.3436 14.0863 21.1726 14.0522 21 14.0522C20.8273 14.0522 20.6564 14.0863 20.4969 14.1525C20.3375 14.2186 20.1926 14.3156 20.0707 14.4378L13.125 21.3836C13.0027 21.5055 12.9058 21.6503 12.8396 21.8098C12.7734 21.9693 12.7394 22.1402 12.7394 22.3128C12.7394 22.4855 12.7734 22.6564 12.8396 22.8159C12.9058 22.9753 13.0027 23.1202 13.125 23.2421Z" fill="white"/>
<path fill-rule="evenodd" clip-rule="evenodd" d="M21 15.75C21.3481 15.75 21.6819 15.8883 21.9281 16.1344C22.1742 16.3806 22.3125 16.7144 22.3125 17.0625V38.0625C22.3125 38.4106 22.1742 38.7444 21.9281 38.9906C21.6819 39.2367 21.3481 39.375 21 39.375C20.6519 39.375 20.3181 39.2367 20.0719 38.9906C19.8258 38.7444 19.6875 38.4106 19.6875 38.0625V17.0625C19.6875 16.7144 19.8258 16.3806 20.0719 16.1344C20.3181 15.8883 20.6519 15.75 21 15.75Z" fill="white"/>
</svg>
