<svg width="42" height="42" viewBox="0 0 42 42" fill="none" xmlns="http://www.w3.org/2000/svg">
<path d="M34.125 5.25C34.125 2.34938 28.2476 0 21 0C13.7524 0 7.875 2.34938 7.875 5.25C7.875 8.15063 13.7524 10.5 21 10.5C28.2476 10.5 34.125 8.15063 34.125 5.25Z" fill="white"/>
<path d="M34.125 9.84375C33.2798 10.4737 32.2927 10.9856 31.2559 11.4004C28.4996 12.5029 24.8719 13.125 21 13.125C17.1281 13.125 13.5004 12.5029 10.7441 11.4004C9.7253 11.0059 8.7611 10.4828 7.875 9.84375V15.75C7.875 18.6506 13.7524 21 21 21C28.2476 21 34.125 18.6506 34.125 15.75V9.84375Z" fill="white"/>
<path d="M34.125 20.3438C33.2798 20.9737 32.2927 21.4856 31.2559 21.9004C28.4996 23.0029 24.8719 23.625 21 23.625C17.1281 23.625 13.5004 23.0029 10.7441 21.9004C9.7253 21.5059 8.7611 20.9828 7.875 20.3438V26.25C7.875 29.1506 13.7524 31.5 21 31.5C28.2476 31.5 34.125 29.1506 34.125 26.25V20.3438Z" fill="white"/>
<path d="M34.125 30.8438C33.2798 31.4737 32.2927 31.9856 31.2559 32.4004C28.4996 33.5029 24.8719 34.125 21 34.125C17.1281 34.125 13.5004 33.5029 10.7441 32.4004C9.72532 32.0059 8.76113 31.4828 7.875 30.8438V36.75C7.875 39.6506 13.7524 42 21 42C28.2476 42 34.125 39.6506 34.125 36.75V30.8438Z" fill="white"/>
</svg>
